<svg width="25" height="24" viewBox="0 0 25 24" fill="none" xmlns="http://www.w3.org/2000/svg">
<g id="mdi:youtube">
<path id="Vector" d="M10.0991 15L15.2819 12L10.0991 9V15ZM21.643 7.17C21.7729 7.64 21.8627 8.27 21.9226 9.07C21.9925 9.87 22.0225 10.56 22.0225 11.16L22.0824 12C22.0824 14.19 21.9226 15.8 21.643 16.83C21.3934 17.73 20.8142 18.31 19.9154 18.56C19.4461 18.69 18.5873 18.78 17.2691 18.84C15.9709 18.91 14.7826 18.94 13.6841 18.94L12.0963 19C7.91216 19 5.30579 18.84 4.27723 18.56C3.37848 18.31 2.79928 17.73 2.54963 16.83C2.41981 16.36 2.32994 15.73 2.27002 14.93C2.20012 14.13 2.17016 13.44 2.17016 12.84L2.11024 12C2.11024 9.81 2.27002 8.2 2.54963 7.17C2.79928 6.27 3.37848 5.69 4.27723 5.44C4.74657 5.31 5.60538 5.22 6.92354 5.16C8.22173 5.09 9.41007 5.06 10.5085 5.06L12.0963 5C16.2805 5 18.8869 5.16 19.9154 5.44C20.8142 5.69 21.3934 6.27 21.643 7.17Z" fill="#0D43FC"/>
</g>
</svg>
